<?xml version="1.0" encoding="utf-8"?>
<!-- Generator: Adobe Illustrator 24.3.0, SVG Export Plug-In . SVG Version: 6.00 Build 0)  -->
<svg version="1.1" id="Layer_1" xmlns="http://www.w3.org/2000/svg" xmlns:xlink="http://www.w3.org/1999/xlink" x="0px" y="0px"
	 viewBox="0 0 190 190" style="enable-background:new 0 0 190 190;" xml:space="preserve">
<style type="text/css">
	.st0{fill:#1FAFFF;}
	.st1{fill:#FFCA22;}
</style>
<g>
	<g>
		<rect x="36" y="24.1" class="st0" width="35" height="4"/>
		<path class="st0" d="M78,71.2H47.1c-6.9,0-12.6,5.7-12.6,12.6s5.6,12.6,12.6,12.6H78c6.9,0,12.6-5.6,12.6-12.6
			C90.6,76.8,84.9,71.2,78,71.2z M78,92.3H47.1c-4.7,0-8.6-3.8-8.6-8.6s3.9-8.6,8.6-8.6H78c4.7,0,8.6,3.9,8.6,8.6S82.7,92.3,78,92.3
			z"/>
		<path class="st0" d="M153.3,143.2h-30.9c-6.9,0-12.6,5.7-12.6,12.6c0,6.9,5.6,12.6,12.6,12.6h30.9c6.9,0,12.6-5.6,12.6-12.6
			C165.9,148.8,160.3,143.2,153.3,143.2z M153.3,164.3h-30.9c-4.7,0-8.6-3.8-8.6-8.6s3.9-8.6,8.6-8.6h30.9c4.7,0,8.6,3.9,8.6,8.6
			S158,164.3,153.3,164.3z"/>
		<path class="st0" d="M34.4,64.7c8.8,0,16.3-6.8,19.5-16.4c3.2,9.6,10.8,16.4,19.5,16.4H84v-4H73.4c-9.2,0-16.8-9.6-17.2-21.7h23.9
			v-4H28.3v4h23.2l0,0c-0.4,12-8,21.7-17.2,21.7H19.6v-50H91v26.7h4V10.7h27.4v-4H19.6h-4v4v52v2H34.4z"/>
		<path class="st0" d="M154.8,6.7h-11.9v4h11.9c12,0,21.8,10.1,21.8,22.4v96.4h-37v-10.8h17.3v-4h-54.3v-13.2c0-4.7,3.4-8.5,7.7-8.5
			h51v-4h-51c-6.4,0-11.7,5.6-11.7,12.5v40.3c0,12.5-6.9,22.6-15.4,22.6h-6.4l0,0H41.2c-12,0-21.8-9.8-21.8-21.8V73.3h-4v69.3
			c0,14.2,11.6,25.8,25.8,25.8h35.7l0,0h6.4c10.7,0,19.4-11.9,19.4-26.6v-8.3h73.9v48.9h4v-48.9v-4V33.1
			C180.5,18.5,169,6.7,154.8,6.7z M102.6,118.7h32.9v10.8h-32.9V118.7z"/>
		<path class="st0" d="M96.1,70.7V58c0-6.9-5.6-12.5-12.5-12.5h-15v4h15c4.7,0,8.5,3.8,8.5,8.5v12.7H96.1z"/>
		
			<rect x="135.5" y="40.2" transform="matrix(0.7071 -0.7071 0.7071 0.7071 3.5681 112.3914)" class="st0" width="4" height="23.4"/>
		<path class="st0" d="M161.2,49V37.2c0-6.6-7.8-11.7-17.8-11.7h-29.1c-0.3-0.1-0.7-0.1-1.1,0c-0.9,0.2-1.5,1-1.5,1.9v36.4
			c0,7.6,7.1,13.7,15.9,13.7h31.8c1.1,0,2-0.9,2-2V56.8h-4v16.7h-29.8c-6.5,0-11.9-4.3-11.9-9.7V29.5h27.7c7.5,0,13.8,3.5,13.8,7.7
			V49H161.2z"/>
	</g>
	<g>
		<rect x="15.3" y="178.6" class="st1" width="87.3" height="3.8"/>
	</g>
</g>
<polygon class="st1" points="87.7,109.1 3.8,132.3 25.2,147.3 74,120.5 33,151.9 29.9,169 40.5,158 62.3,173.3 "/>
</svg>
